<?xml version="1.0" encoding="UTF-8"?>
<svg id="Layer_1" data-name="Layer 1" xmlns="http://www.w3.org/2000/svg" viewBox="0 0 3000 3000">
  <defs>
    <style>
      .cls-1 {
        fill: #f3f3f3;
      }

      .cls-2 {
        font-family: Poppins-Regular, Poppins;
        font-size: 27.95px;
      }

      .cls-2, .cls-3 {
        fill: #231f20;
      }

      .cls-3 {
        font-family: Anton-Regular, Anton;
        font-size: 140.52px;
      }

      .cls-4 {
        fill: #f6b233;
      }
    </style>
  </defs>
  <g>
    <rect x="1023.1" y="831.06" width="730.37" height="730.37" rx="179.3" ry="179.3"/>
    <path class="cls-1" d="M1369.3,1402.65c-8.89-5.9,1.82-26.92-11.7-48.17-2.55-4.01-10.89-17.11-21.95-17.56-20.55-.82-23.62,43.24-52.67,55.6-34.58,14.72-92.33-21.3-90.71-45.77.92-13.88,20.32-14.74,51.21-40.55,40.07-33.48,65.25-80.36,57.06-89.25-2.51-2.72-7.07-.72-40.97,8.78-41.57,11.64-47.25,12.15-51.21,8.78-9.78-8.33-6.28-38.08,10.24-54.13,18.33-17.8,39.11-5.58,62.42-24.87,15.32-12.68,24.71-33.15,19.51-39.5-8.03-9.82-43.84,22.69-71.69,8.78-16.37-8.17-28.21-31.5-21.95-45.36,11.48-25.42,76.27-2.21,95.1-32.19,10.81-17.22,4.35-48.62-11.7-57.06-31.91-16.79-115.61,49.83-153.62,131.68-40.68,87.58-16.97,166.58-20.48,166.79-6.54.4-54.34-275.5,36.58-321.88,21.86-11.15,53.99-10.18,65.84-35.11,13.34-28.05-12.96-59.52,0-73.04,14.17-14.79,59.94,7.89,64.38,10.13,141.96,71.73,205.18,443.06,127.29,515-6.55,6.05-30.95,25.55-40.97,18.91Z"/>
    <path class="cls-4" d="M1485.88,1271.48c-7.57,15.04-19.61,44.35-17.56,81.93.97,17.71,4.81,32.6,8.78,43.89,68.61-14.74,122.53-64.36,136.07-125.82,18.01-81.82-37.72-174.75-134.6-201.9-.55-1.2-10.75-24.44,2.93-43.89,7.91-11.24,19.41-14.99,23.41-16.09,114,48.07,185.4,147.97,180.15,247.84-3.33,63.3-36.58,109.92-55.79,132.56l-96.56,125.41c-14.58-7.37-38.93-22.15-59.99-49.33-14.34-18.52-22.37-36.61-26.94-49.74-2.19-15.79-3.7-41.22,3.61-71.07,8.74-35.68,25.89-60.59,36.5-73.78Z"/>
  </g>
  <text class="cls-3" transform="translate(964.76 1743.88)"><tspan x="0" y="0">DRIVE WITH ANDY</tspan></text>
  <text class="cls-2" transform="translate(970.1 1812.51)"><tspan x="0" y="0">YOUR PERSONAL, AUTHENTIC GHANAIAN JOURNEY STARTS HERE</tspan></text>
</svg>