<?xml version="1.0" encoding="UTF-8"?>
<svg id="Layer_1" data-name="Layer 1" xmlns="http://www.w3.org/2000/svg" viewBox="0 0 3000 3000">
  <defs>
    <style>
      .cls-1 {
        fill: #f3f3f3;
      }

      .cls-2 {
        font-family: Poppins-Regular, Poppins;
        font-size: 27.95px;
      }

      .cls-2, .cls-3 {
        fill: #231f20;
      }

      .cls-3 {
        font-family: Anton-Regular, Anton;
        font-size: 140.52px;
      }

      .cls-4 {
        fill: #f6b233;
      }
    </style>
  </defs>
  <g>
    <rect class="cls-1" x="1009.41" y="857.94" width="882.16" height="882.16" rx="179.3" ry="179.3"/>
    <path class="cls-4" d="M1427.56,1548.31c-10.74-7.12,2.2-32.52-14.14-58.18-3.08-4.84-13.16-20.67-26.51-21.21-24.82-.99-28.53,52.22-63.62,67.15-41.77,17.77-111.52-25.73-109.56-55.29,1.11-16.77,24.55-17.81,61.85-48.97,48.4-40.44,78.81-97.06,68.92-107.8-3.03-3.29-8.54-.87-49.48,10.6-50.2,14.06-57.07,14.67-61.85,10.6-11.81-10.06-7.59-46,12.37-65.38,22.13-21.5,47.23-6.74,75.39-30.04,18.51-15.32,29.84-40.04,23.57-47.71-9.69-11.86-52.96,27.4-86.59,10.6-19.77-9.87-34.07-38.04-26.51-54.78,13.87-30.7,92.12-2.66,114.86-38.88,13.06-20.8,5.25-58.72-14.14-68.92-38.55-20.27-139.63,60.19-185.55,159.04-49.13,105.78-20.5,201.19-24.74,201.45-7.9.48-65.63-332.75,44.18-388.77,26.4-13.47,65.21-12.3,79.52-42.41,16.11-33.88-15.65-71.89,0-88.22,17.11-17.86,72.39,9.53,77.75,12.24,171.46,86.63,247.82,535.14,153.74,622.03-7.91,7.3-37.38,30.86-49.48,22.84Z"/>
    <path d="M1568.36,1389.89c-9.15,18.16-23.68,53.57-21.21,98.96,1.17,21.39,5.8,39.38,10.6,53.01,82.87-17.8,148-77.74,164.34-151.97,21.76-98.82-45.56-211.06-162.58-243.86-.67-1.45-12.99-29.52,3.53-53.01,9.55-13.58,23.44-18.1,28.27-19.44,137.69,58.06,223.93,178.73,217.59,299.34-4.02,76.46-44.19,132.76-67.38,160.11l-116.63,151.47c-17.6-8.9-47.02-26.75-72.45-59.58-17.33-22.36-27.02-44.21-32.54-60.08-2.64-19.08-4.47-49.79,4.36-85.84,10.55-43.1,31.27-73.18,44.09-89.11Z"/>
  </g>
  <text class="cls-3" transform="translate(1006.74 1947.26)"><tspan x="0" y="0">DRIVE WITH ANDY</tspan></text>
  <text class="cls-2" transform="translate(1012.08 2015.89)"><tspan x="0" y="0">YOUR PERSONAL, AUTHENTIC GHANAIAN JOURNEY STARTS HERE</tspan></text>
</svg>